<svg xmlns="http://www.w3.org/2000/svg" width="2047" height="593">
    <rect id="backgroundrect" width="100%" height="100%" x="0" y="0" fill="none" stroke="none"/>

    <g style="">
        <title>background</title>
        <rect fill="none" id="canvas_background" height="595" width="2049" y="-1" x="-1"/>
    </g>
    <g style="" class="currentLayer">
        <title>Layer 1</title>
        <g stroke="null" id="svg_5" class="selected" fill="#31373b" fill-opacity="1">
            <path stroke="null" id="svg_3" d="m807.352104,293.749879l45.35033,0l0,5.500251l-45.35033,0l0,-5.500251z"
                  fill="#31373b" fill-opacity="1"/>
            <path stroke="null" id="svg_1"
                  d="m1056.558774,353.347998c20.767223,-0.506602 28.252229,-14.763832 28.252229,-27.284142l0,-75.049481l2.861914,0l2.861914,-11.362362l-61.714608,0l2.861914,11.362362l41.534446,0l0,73.891535c0,10.783387 -8.072066,17.658701 -19.593105,17.658701l2.935297,10.783388z"
                  fill="#31373b" fill-opacity="1"/>
            <path stroke="null" id="svg_2"
                  d="m1058.907011,327.366547c2.861914,-2.822497 4.036033,-6.802943 4.036033,-13.099283l0,-53.482705l-33.462379,0l0,70.562434l18.492368,0c4.549709,0 8.585742,-1.157948 10.933979,-3.980445zm-17.905309,-7.960889l0,-47.258739l10.346921,0l0,40.962398c0,4.559419 -1.761178,6.223968 -5.797211,6.223968l-4.54971,0l0,0.072373zm-58.265634,-80.83922l0,114.347329l11.521037,0l0,-102.333623l13.869276,0l-8.659124,35.824006c3.448973,2.822497 9.833243,10.204413 9.833243,22.724722s-7.485006,17.079729 -9.833243,18.237675l0,11.941335c6.310887,-0.578973 21.941341,-9.118838 21.941341,-29.600037c0,-12.520308 -4.623092,-21.060173 -8.659125,-26.705167l10.346921,-44.363869l-40.360326,-0.072371zm129.813486,102.984968l-2.274855,11.362362l102.661995,0l-2.935297,-11.362362l-42.708563,0l0,-14.184859l39.259591,0l-2.861915,-11.362362l-36.911352,0l0,-14.25723l26.491051,0c12.695157,0 19.006045,-6.223968 19.006045,-18.744278l0,-44.363869l-102.074935,0l0,63.108147l44.983418,0l0,13.678257l-36.911354,0l-2.861914,11.362362l39.259591,0l0,14.763832l-42.121504,0zm54.743279,-65.424042l27.078109,0l-2.861914,-11.362362l-24.216196,0l0,-14.25723l33.462379,0l0,31.843561c0,5.717366 -2.274855,7.960889 -6.897947,7.960889l-26.564432,0l0,-14.184859zm-44.983418,14.25723l0,-39.80445l33.462379,0l0,14.257231l-24.216196,0l-2.861914,11.289989l27.078109,0l0,14.25723l-33.462379,0zm201.875014,-51.818156l-80.720653,0l-2.861914,11.941335l86.517864,0l-2.935297,-11.941335zm-85.343745,113.261754l-0.587059,1.157947l79.032857,0c4.623092,0 8.072066,-1.157947 10.346921,-3.980444c2.274855,-3.401472 1.761178,-7.381916 0.587059,-9.697812c-1.174119,-5.717366 -5.797211,-25.619591 -6.897947,-28.442089l0,-0.578973l-12.108098,0l0.587059,1.157947c0.58706,2.822497 5.797211,23.303696 6.897947,30.179012l-63.475786,0c2.861914,-13.099283 8.072066,-35.824006 10.93398,-46.679765l70.960792,0l-2.861914,-11.362362l-96.938167,0l-2.861914,11.362362l19.593105,0c-2.274855,10.204413 -9.172802,38.646503 -13.208835,56.884179zm-484.617447,-16.862612c-4.843239,-1.085577 -8.51236,-5.138394 -8.51236,-10.276786l0,-56.449948c0.366912,-5.138392 3.742503,-9.191209 8.51236,-10.276786l53.128866,-11.36236l5.577063,-22.362864l-61.714608,0c-21.867959,0.072371 -39.332972,17.296843 -39.332972,38.574131l0,66.726733c0,21.277287 17.831926,38.863617 39.406356,38.863617l61.714608,0l-5.577063,-22.362863l-53.20225,-11.072874zm154.616742,-110.656373l-62.08152,0l5.577063,22.362864l53.128866,11.362362c4.843239,1.085576 8.51236,5.138392 8.51236,10.276784l0,56.449948c-0.366912,5.138394 -3.742503,9.19121 -8.51236,10.276786l-53.128866,11.362362l-5.577063,22.362863l62.08152,0c21.574429,0 39.406356,-17.224471 39.406356,-38.863617l0,-67.088592c-0.440295,-21.277287 -17.905309,-38.50176 -39.406356,-38.50176z"
                  fill="#31373b" fill-opacity="1"/>
        </g>
        <g id="svg_23">
            <g id="svg_21">
                <title transform="matrix(0.002328892726755072,0,0,0.002328892726755072,1021.1152427325767,295.81064136589634) "
                       stroke-width="0">background
                </title>
                <rect x="438454.25" y="127016.71875" width="2050" height="594" id="svg_19" fill="none"
                      transform="matrix(0.002328892726755072,0,0,0.002328892726755072,0,0) " stroke-width="0"/>
            </g>
            <g id="svg_22">
                <title transform="matrix(0.002328892726755072,0,0,0.002328892726755072,1021.1152427325767,295.81064136589634) "
                       stroke-width="0">Layer 1
                </title>
                <path d="m1021.11291383985,295.80831247316956 l2.3894439376507037,0 l0,0.7545612434686433 l-2.3894439376507037,0 l0,-0.7545612434686433 z"
                      fill="none" id="svg_18" stroke-width="0"/>
                <g fill="#373c41" id="svg_14" stroke-width="0">
                    <path d="m1024.2223349406881,296.4480593052092 l-0.020960034540795647,0 c-0.026083598539656805,0 -0.047509411625803466,0.021192923813471154 -0.047509411625803466,0.047509411625803466 l0,0.0614827679863339 c0,0.026083598539656805 0.02142581308614666,0.047509411625803466 0.047509411625803466,0.047509411625803466 l0.020960034540795647,0 c0.026083598539656805,0 0.047509411625803466,-0.021192923813471154 0.047509411625803466,-0.047509411625803466 l0,-0.0614827679863339 c0,-0.026316487812332312 -0.02142581308614666,-0.047509411625803466 -0.047509411625803466,-0.047509411625803466 zm0.020261366722769125,0.10875929033946186 c0,0.011178685088424345 -0.00908268163434478,0.020261366722769125 -0.020261366722769125,0.020261366722769125 l-0.020960034540795647,0 c-0.011178685088424345,0 -0.020261366722769125,-0.00908268163434478 -0.020261366722769125,-0.020261366722769125 l0,-0.0614827679863339 c0,-0.011178685088424345 0.00908268163434478,-0.020261366722769125 0.020261366722769125,-0.020261366722769125 l0.020960034540795647,0 c0.011178685088424345,0 0.020261366722769125,0.00908268163434478 0.020261366722769125,0.020261366722769125 l0,0.0614827679863339 zm-1.0312336994071458,-0.16046070887342445 l0.02724804490303434,0 l0,0.2044767814090953 l-0.02724804490303434,0 l0,-0.2044767814090953 zm0.05892098598690332,0.0551947576240952 l0.02724804490303434,0 l0,0.1492820237850001 l-0.02724804490303434,0 l0,-0.1492820237850001 zm0.013740467087854924,-0.0551947576240952 c-0.010014238725046809,0 -0.01816536326868956,0.008151124543642752 -0.01816536326868956,0.01816536326868956 s0.008151124543642752,0.018398252541365068 0.01816536326868956,0.018398252541365068 s0.01816536326868956,-0.008151124543642752 0.01816536326868956,-0.018398252541365068 c0,-0.010014238725046809 -0.008151124543642752,-0.01816536326868956 -0.01816536326868956,-0.01816536326868956 zm-0.17047494759847126,0 l-0.03307027671992202,0 c-0.012576020724477388,0.022124480904173183 -0.04238584762694231,0.08314147034515607 -0.07312723162010926,0.2044767814090953 l0.028412491266411877,0 c0.004890674726185651,-0.018631141814040575 0.009548460179695795,-0.0356320587193526 0.014206245633205938,-0.05123563998861158 l0.09944371943244157,0 c0.004657785453510144,0.015603581269258981 0.009315570907020287,0.032604498174571006 0.014206245633205938,0.05123563998861158 l0.028412491266411877,0 c-0.03074138399316695,-0.12133531106393924 -0.06055121089563187,-0.18235230050492213 -0.07312723162010926,-0.2044767814090953 l-0.005356453271536665,0 zm-0.0551947576240952,0.12576020724477388 c0.015370691996583474,-0.047509411625803466 0.029344048357113905,-0.07918235270967244 0.03865961926413419,-0.09804638379638853 l0.005356453271536665,0 c0.009315570907020287,0.018631141814040575 0.02305603799487521,0.05030408289790955 0.038426729991458686,0.09804638379638853 l-0.08244280252712954,0 zm1.0433439415862722,-0.1259930965174494 l0.02724804490303434,0 l0,0.20470967068177082 l-0.02724804490303434,0 l0,-0.20470967068177082 zm-0.6690908803967321,0.06264721434971143 c-0.01490491345123246,-0.011877352906450866 -0.03982406562751173,-0.013973356360530431 -0.07592190289221534,-0.006520899634914201 l0,-0.055893425442121725 l-0.02724804490303434,0 l0,0.2044767814090953 l0.026083598539656805,0 c0.013507577815179417,0.002328892726755072 0.02654937708500782,0.003493339090132608 0.03633072653737912,0.003493339090132608 c0.017233806177987532,0 0.03050849472049144,-0.003726228362808115 0.040056954900187236,-0.011178685088424345 c0.016302249087285503,-0.012808909997152895 0.016302249087285503,-0.031905830356544485 0.016302249087285503,-0.04122140126356477 l0,-0.05403031126071767 c-0.00023288927267550719,-0.008616903088993766 0,-0.026782266357683326 -0.015603581269258981,-0.03912539780948521 zm-0.011877352906450866,0.08547036307191114 l0,0.007685345998291737 c0,0.008384013816318259 -0.00046577854535101437,0.015603581269258981 -0.00582223181688768,0.01979558817741811 c-0.004890674726185651,0.003959117635483622 -0.022124480904173183,0.00908268163434478 -0.0582223181688768,0.0016302249087285505 l0,-0.09338859834287838 c0.04122140126356477,-0.009315570907020287 0.054961868351419696,-0.0030275605447815934 0.05892098598690332,0.00023288927267550719 c0.004657785453510144,0.003726228362808115 0.005123563998861158,0.010014238725046809 0.005123563998861158,0.017932473996014053 l0,0.04611207598975042 zm0.5419333375159052,-0.060784100168307376 l0,-0.03633072653737912 c0,-0.002561781999430579 0.0013973356360530433,-0.016069359814609996 0.018631141814040575,-0.020261366722769125 c0.031905830356544485,-0.007918235270967244 0.06940100325730114,-0.0018631141814040575 0.08826503434401722,0.00582223181688768 l0.006753788907589708,-0.02654937708500782 c-0.017233806177987532,-0.006288010362238694 -0.03959117635483622,-0.010014238725046809 -0.061715657259009404,-0.010014238725046809 c-0.013740467087854924,0 -0.027480934175709848,0.0013973356360530433 -0.03982406562751173,0.0044248961808346365 c-0.031207162538517963,0.007685345998291737 -0.039358287082160714,0.03400183381062405 -0.039358287082160714,0.046810743807776944 l0,0.10596461906735577 c0,0.012808909997152895 0.008151124543642752,0.03912539780948521 0.039358287082160714,0.046810743807776944 c0.012343131451801881,0.0030275605447815934 0.025850709266981298,0.0044248961808346365 0.03982406562751173,0.0044248961808346365 c0.021891591631497676,0 0.04401607253567086,-0.003493339090132608 0.06101698944098288,-0.009781349452371302 l-0.006753788907589708,-0.02654937708500782 c-0.01909692035939159,0.00745245672561623 -0.05612631471479723,0.01327468854250391 -0.0875663665259907,0.005356453271536665 c-0.01746669545066304,-0.0044248961808346365 -0.018631141814040575,-0.017699584723338546 -0.018631141814040575,-0.020261366722769125 l0,-0.06986678180265216 zm0.41617313027113134,0.09012814852542128 c-0.03493339090132608,0.007219567452940723 -0.048440968716505495,0.0020960034540795647 -0.053331643442691146,-0.0018631141814040575 c-0.005356453271536665,-0.004192006908159129 -0.00582223181688768,-0.011411574361099852 -0.00582223181688768,-0.01979558817741811 l0,-0.1006081657958191 l-0.02724804490303434,0 l0,0.1006081657958191 c0,0.009315570907020287 0,0.028412491266411877 0.016302249087285503,0.04122140126356477 c0.009548460179695795,0.00745245672561623 0.022823148722199704,0.011178685088424345 0.040056954900187236,0.011178685088424345 c0.009548460179695795,0 0.020494255995444632,-0.001164446363377536 0.03283738744724651,-0.003493339090132608 l0.024686262903603762,0 l0,-0.1492820237850001 l-0.02724804490303434,0 l0,0.12203397888196577 l-0.00023288927267550719,0 zm0.16302249087285503,-0.17722873650606097 l-0.02724804490303434,0 l0,0.05472897907874419 c-0.03307027671992202,-0.006055121089563187 -0.05635920398747274,-0.003493339090132608 -0.07056544962067868,0.007685345998291737 c-0.015603581269258981,0.012343131451801881 -0.015370691996583474,0.03050849472049144 -0.015370691996583474,0.039358287082160714 l0,0.05356453271536665 c0,0.009315570907020287 0,0.028412491266411877 0.016302249087285503,0.04122140126356477 c0.009548460179695795,0.00745245672561623 0.022823148722199704,0.011178685088424345 0.040056954900187236,0.011178685088424345 c0.009548460179695795,0 0.020494255995444632,-0.001164446363377536 0.03283738744724651,-0.003493339090132608 l0.024220484358252747,0 l0,-0.2042438921364198 l-0.00023288927267550719,0 zm-0.08011390980037447,0.1753656223246569 c-0.005356453271536665,-0.004192006908159129 -0.00582223181688768,-0.011411574361099852 -0.00582223181688768,-0.01979558817741811 l0,-0.05379742198804216 c0,-0.007918235270967244 0.00023288927267550719,-0.014206245633205938 0.005123563998861158,-0.017932473996014053 c0.003959117635483622,-0.0030275605447815934 0.016768027632636517,-0.008849792361669273 0.05356453271536665,-0.0013973356360530433 l0,0.09478593397893142 c-0.034467612355975064,0.006986678180265216 -0.04797519017115448,0.0020960034540795647 -0.05286586489734013,-0.0018631141814040575 zm-0.8928974714378946,-0.11388285433832301 c-0.027015155630358834,-0.019329809632067096 -0.07731923852826839,-0.004890674726185651 -0.08942948070739476,-0.0009315570907020287 l0.006753788907589708,0.02654937708500782 c0.01583647054193449,-0.005356453271536665 0.05286586489734013,-0.01327468854250391 0.06683922125787056,-0.0032604498174571006 c0.002561781999430579,0.0018631141814040575 0.005356453271536665,0.004890674726185651 0.005356453271536665,0.01327468854250391 l0,0.019329809632067096 c-0.011411574361099852,-0.0018631141814040575 -0.027713823448385355,-0.0032604498174571006 -0.04657785453510144,0 c-0.01746669545066304,0.0027946712721060862 -0.030042716175140427,0.010014238725046809 -0.037728062173432164,0.020960034540795647 c-0.006753788907589708,0.009781349452371302 -0.008849792361669273,0.022124480904173183 -0.00582223181688768,0.0356320587193526 c0.004890674726185651,0.022590259449524197 0.02328892726755072,0.0356320587193526 0.051002750715936074,0.0356320587193526 c0.011411574361099852,0 0.02724804490303434,-0.0013973356360530433 0.03959117635483622,-0.003493339090132608 l0.02654937708500782,0 l0,-0.10852640106678635 c0.00023288927267550719,-0.01909692035939159 -0.008849792361669273,-0.02980982690246492 -0.01653513835996101,-0.035166280174001585 zm-0.07382589943813578,0.10526595124932925 c-0.0009315570907020287,-0.004192006908159129 -0.0013973356360530433,-0.010014238725046809 0.0016302249087285505,-0.014672024178556953 c0.003959117635483622,-0.00582223181688768 0.012808909997152895,-0.008384013816318259 0.019562698904742604,-0.009315570907020287 c0.01816536326868956,-0.0030275605447815934 0.033536055265273035,-0.0009315570907020287 0.0421529583542668,0.0009315570907020287 l0,0.03330316599259753 c-0.010247127997722316,0.0020960034540795647 -0.02724804490303434,0.003726228362808115 -0.03912539780948521,0.003726228362808115 c-0.02142581308614666,0 -0.023521816540226226,-0.010014238725046809 -0.024220484358252747,-0.013973356360530431 zm0.36167704046506266,-0.10526595124932925 c-0.027015155630358834,-0.019329809632067096 -0.07708634925559288,-0.004890674726185651 -0.08942948070739476,-0.0009315570907020287 l0.006753788907589708,0.02654937708500782 c0.01583647054193449,-0.005356453271536665 0.05286586489734013,-0.01327468854250391 0.06683922125787056,-0.0032604498174571006 c0.002561781999430579,0.0018631141814040575 0.005356453271536665,0.004890674726185651 0.005356453271536665,0.01327468854250391 l0,0.019329809632067096 c-0.011411574361099852,-0.0018631141814040575 -0.027713823448385355,-0.0032604498174571006 -0.04657785453510144,0 c-0.01746669545066304,0.0027946712721060862 -0.030275605447815934,0.010014238725046809 -0.037728062173432164,0.020960034540795647 c-0.006753788907589708,0.009781349452371302 -0.008616903088993766,0.022124480904173183 -0.00582223181688768,0.0356320587193526 c0.004890674726185651,0.022590259449524197 0.02328892726755072,0.0356320587193526 0.051002750715936074,0.0356320587193526 c0.011411574361099852,0 0.02724804490303434,-0.0013973356360530433 0.03959117635483622,-0.003493339090132608 l0.02654937708500782,0 l0,-0.10852640106678635 c0.00046577854535101437,-0.01909692035939159 -0.008849792361669273,-0.02980982690246492 -0.01653513835996101,-0.035166280174001585 zm-0.07382589943813578,0.10526595124932925 c-0.0009315570907020287,-0.004192006908159129 -0.0013973356360530433,-0.010014238725046809 0.0016302249087285505,-0.014672024178556953 c0.003959117635483622,-0.00582223181688768 0.012808909997152895,-0.008384013816318259 0.019562698904742604,-0.009315570907020287 c0.01816536326868956,-0.0030275605447815934 0.033536055265273035,-0.0009315570907020287 0.0421529583542668,0.0009315570907020287 l0,0.03330316599259753 c-0.010247127997722316,0.0020960034540795647 -0.02724804490303434,0.003726228362808115 -0.03912539780948521,0.003726228362808115 c-0.021192923813471154,0 -0.02328892726755072,-0.010014238725046809 -0.024220484358252747,-0.013973356360530431 zm-0.06218143580436042,-0.10433439415862722 c-0.01490491345123246,-0.011877352906450866 -0.03982406562751173,-0.013973356360530431 -0.07592190289221534,-0.006520899634914201 l0,-0.055893425442121725 l-0.02724804490303434,0 l0,0.2044767814090953 l0.026083598539656805,0 c0.013507577815179417,0.002328892726755072 0.02654937708500782,0.003493339090132608 0.03633072653737912,0.003493339090132608 c0.017233806177987532,0 0.03050849472049144,-0.003726228362808115 0.040056954900187236,-0.011178685088424345 c0.016302249087285503,-0.012808909997152895 0.016302249087285503,-0.031905830356544485 0.016302249087285503,-0.04122140126356477 l0,-0.05403031126071767 c-0.00023288927267550719,-0.008616903088993766 -0.00023288927267550719,-0.026782266357683326 -0.015603581269258981,-0.03912539780948521 zm-0.011877352906450866,0.06614055343984404 l0,0.027015155630358834 c0,0.008384013816318259 -0.00046577854535101437,0.015603581269258981 -0.00582223181688768,0.01979558817741811 c-0.004890674726185651,0.003959117635483622 -0.022124480904173183,0.00908268163434478 -0.0582223181688768,0.0016302249087285505 l0,-0.09338859834287838 c0.04122140126356477,-0.009315570907020287 0.054961868351419696,-0.0030275605447815934 0.05892098598690332,0.00023288927267550719 c0.004657785453510144,0.003726228362808115 0.005123563998861158,0.010014238725046809 0.005123563998861158,0.017932473996014053 l0,0.026782266357683326 z"
                          id="svg_17" stroke-width="0"/>
                    <path d="m1022.6521954643098,296.6031635608111 l-0.10806062252143533,-0.023521816540226226 c-0.009781349452371302,-0.002328892726755072 -0.017233806177987532,-0.010945795815748838 -0.017699584723338546,-0.02142581308614666 l0,-0.1164446363377536 c0.00046577854535101437,-0.010480017270397823 0.007918235270967244,-0.01909692035939159 0.017699584723338546,-0.02142581308614666 l0.10806062252143533,-0.023521816540226226 l0.01164446363377536,-0.045879186717074916 l-0.12576020724477388,0 c-0.044248961808346365,0 -0.07988102052769896,0.0356320587193526 -0.08011390980037447,0.07988102052769896 l0,0.13787044942390025 c0,0.04448185108102187 0.03586494799202811,0.08034679907304998 0.07988102052769896,0.08034679907304998 l0.12576020724477388,0 l-0.011411574361099852,-0.045879186717074916 zm0.09199126270682534,0 l0.10806062252143533,-0.023521816540226226 c0.009781349452371302,-0.002328892726755072 0.017233806177987532,-0.010945795815748838 0.017699584723338546,-0.02142581308614666 l0,-0.1164446363377536 c-0.00046577854535101437,-0.010480017270397823 -0.007918235270967244,-0.01909692035939159 -0.017699584723338546,-0.02142581308614666 l-0.10806062252143533,-0.023521816540226226 l-0.01164446363377536,-0.045879186717074916 l0.12576020724477388,0 c0.044248961808346365,0 0.07988102052769896,0.0356320587193526 0.08011390980037447,0.07988102052769896 l0,0.13787044942390025 c-0.00023288927267550719,0.04401607253567086 -0.03586494799202811,0.07988102052769896 -0.08011390980037447,0.07988102052769896 l-0.12576020724477388,0 l0.01164446363377536,-0.0454134081717239 z"
                          id="svg_16" stroke-width="0"/>
                    <path d="m1022.6521954643098,296.49440427047165 l0.09199126270682534,0 l0,0.011411574361099852 l-0.09199126270682534,0 l0,-0.011411574361099852 z"
                          id="svg_15" stroke-width="0"/>
                </g>
            </g>
        </g>
    </g>
</svg>